<svg width="34" height="24" viewBox="0 0 34 24" fill="none" xmlns="http://www.w3.org/2000/svg">
  <path fill="#fff" d="M0 0h34v24H0z"/>
  <path fill-rule="evenodd" clip-rule="evenodd" d="M16.845 10.966a.43.43 0 00-.433.424v3.194a.432.432 0 10.865 0V11.39a.43.43 0 00-.432-.424zm0-1.592a.491.491 0 00-.488.488.5.5 0 00.488.497.493.493 0 000-.985zm4.215 2.016c0-.267-.212-.369-.405-.369H18.51a.373.373 0 100 .746h1.409l-1.823 2.54a.452.452 0 00-.082.258c0 .267.211.415.395.415h2.274a.373.373 0 00.377-.378.373.373 0 00-.377-.377h-1.528l1.785-2.486a.572.572 0 00.12-.35zm-6.314 2.006c0 .525-.23.847-.755.847-.524 0-.745-.322-.745-.847v-1.629h.782c.635 0 .718.35.718.737v.892zm.865-.91c0-.894-.469-1.474-1.564-1.474h-.792V9.806a.43.43 0 00-.423-.432.432.432 0 00-.433.432v3.59c0 .893.479 1.62 1.61 1.62 1.124 0 1.612-.736 1.612-1.62v-.911h-.01zm8.827-1.52a.432.432 0 00-.433.433v1.997c0 .525-.23.847-.755.847-.524 0-.745-.322-.745-.847V11.4a.43.43 0 00-.423-.433.432.432 0 00-.433.433v1.997c0 .893.479 1.62 1.61 1.62 1.124 0 1.611-.736 1.611-1.62V11.4a.444.444 0 00-.432-.433zM31 12.596c0-.893-.414-1.62-1.537-1.62-.506 0-.865.147-1.114.395-.248-.239-.607-.396-1.113-.396-1.123 0-1.537.737-1.537 1.62v1.998c0 .24.193.433.423.433.24 0 .433-.194.433-.433v-1.997c0-.525.165-.847.68-.847.525 0 .682.322.682.847v1.997c0 .24.193.433.423.433.24 0 .433-.194.433-.433v-1.997c0-.525.165-.847.68-.847.525 0 .682.322.682.847v1.997c0 .24.193.433.423.433.24 0 .433-.194.433-.433L31 12.596zm-26.47-1.62c.304.22.727.156.948-.148l.792-1.095a.677.677 0 10-1.096-.801l-.8 1.095a.688.688 0 00.156.949zm3.626-1.547a.677.677 0 00-.948.147l-3.184 4.382a.677.677 0 101.095.8l3.185-4.38a.67.67 0 00-.148-.949zm-3.93-.35a.677.677 0 10-1.095-.8.677.677 0 101.095.8zm4.832 6.02a.677.677 0 10.147.948.677.677 0 00-.147-.948zm-1.242-1.74a.677.677 0 00-.948.148l-.8 1.095a.677.677 0 101.094.801l.801-1.095a.677.677 0 00-.147-.948z" fill="#05C0C7"/>
</svg>
